<svg width="76" height="75" viewBox="0 0 76 75" fill="none" xmlns="http://www.w3.org/2000/svg">
<rect x="2.5" y="2" width="71" height="71" rx="8" stroke="white" stroke-width="4"/>
<path d="M39.2188 34.0625C32.125 32.2187 29.8438 30.3125 29.8438 27.3438C29.8438 23.9375 33 21.5625 38.2812 21.5625C43.8438 21.5625 45.9062 24.2188 46.0938 28.125H53C52.7812 22.75 49.5 17.8125 42.9688 16.2188V9.375H33.5937V16.125C27.5312 17.4375 22.6562 21.375 22.6562 27.4063C22.6562 34.625 28.625 38.2187 37.3437 40.3125C45.1562 42.1875 46.7187 44.9375 46.7187 47.8438C46.7187 50 45.1875 53.4375 38.2812 53.4375C31.8438 53.4375 29.3125 50.5625 28.9688 46.875H22.0938C22.4688 53.7188 27.5937 57.5625 33.5937 58.8438V65.625H42.9688V58.9062C49.0625 57.75 53.9062 54.2188 53.9062 47.8125C53.9062 38.9375 46.3125 35.9062 39.2188 34.0625Z" fill="white"/>
</svg>
