<svg width="25" height="25" viewBox="0 0 25 25" fill="none" xmlns="http://www.w3.org/2000/svg">
<path d="M17.0463 13.5C17.7963 13.5 18.4563 13.09 18.7963 12.47L22.3763 5.98C22.7463 5.32 22.2663 4.5 21.5063 4.5H6.70634L5.76634 2.5H2.49634V4.5H4.49634L8.09634 12.09L6.74634 14.53C6.01634 15.87 6.97634 17.5 8.49634 17.5H20.4963V15.5H8.49634L9.59634 13.5H17.0463ZM7.65634 6.5H19.8063L17.0463 11.5H10.0263L7.65634 6.5ZM8.49634 18.5C7.39634 18.5 6.50634 19.4 6.50634 20.5C6.50634 21.6 7.39634 22.5 8.49634 22.5C9.59634 22.5 10.4963 21.6 10.4963 20.5C10.4963 19.4 9.59634 18.5 8.49634 18.5ZM18.4963 18.5C17.3963 18.5 16.5063 19.4 16.5063 20.5C16.5063 21.6 17.3963 22.5 18.4963 22.5C19.5963 22.5 20.4963 21.6 20.4963 20.5C20.4963 19.4 19.5963 18.5 18.4963 18.5Z" fill="#FF8846"/>
</svg>
